# xmcd
#
# Track frame offsets:
#	150
#	18726
#	41949
#	57196
#	75085
#	96414
#	111417
#	130467
#	146288
#	163809
#	181889
#	197630
#	212597
#	227588
#	242659
#	258763
#	275310
#	291528
#	306379
#
# Disc length: 4303
#
# Revision: 2
# Processed by: cddbd v1.5.1PL0 Copyright (c) Steve Scherf et al.
# Submitted via: audiograbber 1.83.01
# Normalized: r1:TDELIM( - )
#
DISCID=1610cd13
DTITLE=Bravo Hits - Vol. 30
DYEAR=2000
DGENRE=
TTITLE0=Das Bo - türlich, türlich (sicher, Dicker)
TTITLE1=Xavier Naidoo - Seine Strassen
TTITLE2=Echt - Junimond
TTITLE3=Verena - Ist das alles?
TTITLE4=Fünf Sterne Deluxe - Die Leude
TTITLE5=DJ Tomekk Feat. GZA, Prodigal Sunn, Curse and Luxus Chris - Ich lebe für HipHop
TTITLE6=Mary Mary - Shackless (Praise you)
TTITLE7=MYA Feat. Jadakiss - The best of me
TTITLE8=The Underdog Project - Summer Jam
TTITLE9=Craig David - Fill me in
TTITLE10=Artful Dodger and Robbie Scraig Feat. Craig David - Woman Trouble
TTITLE11=Sisqo - Thong Song
TTITLE12=Black Legend - You see the trouble with me
TTITLE13=Southside Rockers - Jump
TTITLE14=King Africa - La Bomba
TTITLE15=Joakino - Venga Venga
TTITLE16=DJ Ötzi - Hey Baby
TTITLE17=Yellow Mellow - Tonight
TTITLE18=Soap Allstars - Only with you
EXTD=
EXTT0=
EXTT1=
EXTT2=
EXTT3=
EXTT4=
EXTT5=
EXTT6=
EXTT7=
EXTT8=
EXTT9=
EXTT10=
EXTT11=
EXTT12=
EXTT13=
EXTT14=
EXTT15=
EXTT16=
EXTT17=
EXTT18=
PLAYORDER=
